# xmcd
# Track frame offsets:
# 150
# 11892
# 25252
# 37940
# 51265
# 63242
# 75260
# 88370
# 106870
# 120045
# 131982
# 143660
# 154340
# 167982
#
# Disc length: 2374 seconds
# Revision: 0
# Processed by: cddbd v1.5.2PL0 Copyright (c) Steve Scherf et al.
# Submitted via: VisiTrax 2.9.5.180 - For more info visit www.synapsa.com
#
DISCID=b109440e
DTITLE=Dave Dudley - Six days on the road
DYEAR=1993
DGENRE=Country
TTITLE0=Six days on the road
TTITLE1=Couterfeit cowboy
TTITLE2=I do
TTITLE3=A friend named wine
TTITLE4=Rodeo drifter
TTITLE5=Demins and diamonds
TTITLE6=I can't remember you
TTITLE7=He dosen't live there anymore
TTITLE8=I have been known not to go home
TTITLE9=South bound and down
TTITLE10=Texas Ruby
TTITLE11=That's how cold
TTITLE12=Thirty eight and lonely
TTITLE13=Been around the horn
EXTD=
EXTT0=
EXTT1=
EXTT2=
EXTT3=
EXTT4=
EXTT5=
EXTT6=
EXTT7=
EXTT8=
EXTT9=
EXTT10=
EXTT11=
EXTT12=
EXTT13=
PLAYORDER=
